<svg xmlns="http://www.w3.org/2000/svg" viewBox="0 0 512 512" width="512" height="512">
  <defs>
    <linearGradient id="bg" x1="0%" y1="0%" x2="100%" y2="100%">
      <stop offset="0%" style="stop-color:#f0f4f8"/>
      <stop offset="100%" style="stop-color:#dce6f0"/>
    </linearGradient>
    <linearGradient id="envelope" x1="0%" y1="0%" x2="100%" y2="100%">
      <stop offset="0%" style="stop-color:#3b8ec2"/>
      <stop offset="100%" style="stop-color:#2a6d9e"/>
    </linearGradient>
    <linearGradient id="flap" x1="50%" y1="0%" x2="50%" y2="100%">
      <stop offset="0%" style="stop-color:#56b0e0"/>
      <stop offset="100%" style="stop-color:#3b8ec2"/>
    </linearGradient>
    <filter id="shadow" x="-5%" y="-5%" width="110%" height="115%">
      <feDropShadow dx="0" dy="4" stdDeviation="8" flood-color="#2a6d9e" flood-opacity="0.25"/>
    </filter>
  </defs>

  <rect width="512" height="512" rx="90" ry="90" fill="url(#bg)"/>

  <g filter="url(#shadow)">
    <path d="M 80 175 L 80 385 Q 80 405 100 405 L 412 405 Q 432 405 432 385 L 432 175 Z" fill="url(#envelope)"/>

    <path d="M 80 175 L 256 315 L 432 175 L 412 150 Q 406 135 390 135 L 122 135 Q 106 135 100 150 Z" fill="url(#flap)"/>

    <path d="M 80 175 L 256 315 L 432 175" fill="none" stroke="white" stroke-width="8" stroke-linejoin="round" stroke-linecap="round"/>
  </g>
</svg>
